<?xml version="1.0" encoding="utf-8"?>
<!-- Generator: Adobe Illustrator 18.1.1, SVG Export Plug-In . SVG Version: 6.00 Build 0)  -->
<svg version="1.1" id="Layer_1" xmlns="http://www.w3.org/2000/svg" xmlns:xlink="http://www.w3.org/1999/xlink" x="0px" y="0px"
	 viewBox="0 0 722.8 157.7" enable-background="new 0 0 722.8 157.7" xml:space="preserve">
<g>
	<g>
		<defs>
			<rect id="SVGID_1_" x="0" y="2.4" width="240.4" height="149.7"/>
		</defs>
		<clipPath id="SVGID_2_">
			<use xlink:href="#SVGID_1_"  overflow="visible"/>
		</clipPath>
		<g clip-path="url(#SVGID_2_)">
			<defs>
				<rect id="SVGID_3_" x="0" y="2.4" width="240.4" height="149.7"/>
			</defs>
			<clipPath id="SVGID_4_">
				<use xlink:href="#SVGID_3_"  overflow="visible"/>
			</clipPath>
			<path clip-path="url(#SVGID_4_)" fill="#FFFFFF" d="M192.6,104.6h42.2l5.3-12.6l0,0h-36.5L158.9,2.7c0,0,0,0,0,0l-46.5,122.6
				L77.5,92L0.3,91.9c0,0,0,0,0,0l5.1,12.7l64.2,0.1l49.4,47.1c0,0,0.1,0,0.1,0l41.9-110.6L192.6,104.6z"/>
			<path clip-path="url(#SVGID_4_)" fill="none" stroke="#000000" stroke-width="6" stroke-miterlimit="10" d="M192.6,104.6h42.2
				l5.3-12.6l0,0h-36.5L158.9,2.7c0,0,0,0,0,0l-46.5,122.6L77.5,92L0.3,91.9c0,0,0,0,0,0l5.1,12.7l64.2,0.1l49.4,47.1
				c0,0,0.1,0,0.1,0l41.9-110.6L192.6,104.6z"/>
		</g>
		<g clip-path="url(#SVGID_2_)">
			<defs>
				<path id="SVGID_5_" d="M5.4,79.3L0.3,91.8c0,0,0,0.1,0,0.1L77.5,92l34.8,33.4l5-13.1l-35.7-33L5.4,79.3z"/>
			</defs>
			<clipPath id="SVGID_6_">
				<use xlink:href="#SVGID_5_"  overflow="visible"/>
			</clipPath>
			
				<linearGradient id="SVGID_7_" gradientUnits="userSpaceOnUse" x1="-2.326862e-03" y1="-79.2846" x2="9.323104e-02" y2="-79.2846" gradientTransform="matrix(1224.0806 0 0 -1224.0806 3.168 -96948.4219)">
				<stop  offset="0" style="stop-color:#81BF41"/>
				<stop  offset="0.8781" style="stop-color:#81BF41"/>
				<stop  offset="1" style="stop-color:#4F9442"/>
			</linearGradient>
			<rect x="0.3" y="79.3" clip-path="url(#SVGID_6_)" fill="url(#SVGID_7_)" width="117" height="46.1"/>
		</g>
		<g clip-path="url(#SVGID_2_)">
			<defs>
				<rect id="SVGID_8_" x="0" y="2.4" width="240.4" height="149.7"/>
			</defs>
			<clipPath id="SVGID_9_">
				<use xlink:href="#SVGID_8_"  overflow="visible"/>
			</clipPath>
			<path clip-path="url(#SVGID_9_)" fill="none" stroke="#000000" stroke-width="6" stroke-miterlimit="10" d="M81.6,79.3l35.7,33
				l-5,13.1L77.5,92L0.4,91.9c0,0,0,0,0-0.1l5.1-12.5L81.6,79.3z"/>
		</g>
		<g clip-path="url(#SVGID_2_)">
			<defs>
				<path id="SVGID_10_" d="M119.1,151.8C119.1,151.8,119.1,151.9,119.1,151.8l15.7-1.2l35-91.7l-8.8-17.7L119.1,151.8z"/>
			</defs>
			<clipPath id="SVGID_11_">
				<use xlink:href="#SVGID_10_"  overflow="visible"/>
			</clipPath>
			
				<linearGradient id="SVGID_12_" gradientUnits="userSpaceOnUse" x1="-1.1396" y1="-78.669" x2="-1.0441" y2="-78.669" gradientTransform="matrix(830.7888 -479.6562 -479.6562 -830.7888 -36685.8086 -65782.625)">
				<stop  offset="0" style="stop-color:#81BF41"/>
				<stop  offset="0.8889" style="stop-color:#81BF41"/>
				<stop  offset="0.9238" style="stop-color:#72A63F"/>
				<stop  offset="1" style="stop-color:#597D38"/>
			</linearGradient>
			<polygon clip-path="url(#SVGID_11_)" fill="url(#SVGID_12_)" points="71.2,68.8 157.2,19.2 217.8,124.2 131.8,173.8 			"/>
		</g>
		<g clip-path="url(#SVGID_2_)">
			<defs>
				<rect id="SVGID_13_" x="0" y="2.4" width="240.4" height="149.7"/>
			</defs>
			<clipPath id="SVGID_14_">
				<use xlink:href="#SVGID_13_"  overflow="visible"/>
			</clipPath>
			<path clip-path="url(#SVGID_14_)" fill="none" stroke="#000000" stroke-width="6" stroke-miterlimit="10" d="M169.9,58.9
				l-35,91.7l-15.7,1.3c0,0,0,0,0,0l42-110.6L169.9,58.9z"/>
			<path clip-path="url(#SVGID_14_)" fill="#81BF41" d="M159.1,2.7h16.7l37.1,76.7h20.2l7,12.5c0,0,0,0.1,0,0.1h-36.4L159,3
				C158.9,2.9,159,2.7,159.1,2.7"/>
			<path clip-path="url(#SVGID_14_)" fill="none" stroke="#000000" stroke-width="6" stroke-miterlimit="10" d="M159.1,2.7h16.7
				l37.1,76.7h20.2l7,12.5c0,0,0,0.1,0,0.1h-36.4L159,3C158.9,2.9,159,2.7,159.1,2.7z"/>
		</g>
	</g>
</g>
<g>
	<path fill="#FFFFFF" d="M325.2,95.9c0-4.2-1-7.8-3-10.8s-5.1-5.5-9.4-7.8c-4.3-2.3-10.7-4.6-19.3-6.9c-8.6-2.4-15.1-4.8-19.4-7.2
		c-4.3-2.4-7.5-5.2-9.5-8.4c-2-3.2-3-7.1-3-11.6c0-7.2,3.1-13.1,9.2-17.6c6.1-4.5,14.1-6.7,23.9-6.7c6.4,0,12.1,1.2,17.2,3.7
		c5.1,2.5,9,6,11.8,10.5c2.8,4.5,4.2,9.6,4.2,15.2h-3.7c0-7.4-2.7-13.6-8.2-18.4s-12.6-7.3-21.3-7.3c-8.8,0-15.8,1.9-21.2,5.8
		s-8.1,8.8-8.1,14.7c0,6,2.3,10.8,7,14.4c4.7,3.6,12.4,6.9,23.2,9.7s18.7,6,23.7,9.7c6.4,4.7,9.6,11,9.6,18.9c0,5-1.4,9.4-4.2,13.3
		c-2.8,3.9-6.8,6.8-12,8.9s-11,3.1-17.5,3.1c-7.2,0-13.7-1.2-19.4-3.6s-10.1-5.8-13-10.2c-2.9-4.4-4.3-9.6-4.3-15.7h3.7
		c0,8.2,3.1,14.5,9.2,19c6.1,4.5,14.1,6.8,23.9,6.8c8.7,0,15.9-2,21.5-6C322.4,107.5,325.2,102.3,325.2,95.9z"/>
	<path fill="#FFFFFF" d="M403,83.5c0,11.5-2.5,20.7-7.5,27.5c-5,6.8-11.7,10.2-20.3,10.2c-5.6,0-10.6-1.1-15-3.4s-7.8-5.4-10.3-9.4
		v39.9h-3.7V45.8h3.7V59c2.6-4.7,6-8.3,10.3-10.8c4.3-2.5,9.3-3.8,14.8-3.8c8.7,0,15.5,3.3,20.4,9.9s7.5,15.9,7.5,27.9V83.5z
		 M399.3,82c0-10.6-2.1-18.9-6.3-24.9c-4.2-6-10.1-9-17.7-9c-6.2,0-11.5,1.6-15.8,4.8c-4.3,3.2-7.5,7.8-9.4,13.8v34.6
		c1.9,5.1,5,9.1,9.4,11.9c4.4,2.8,9.6,4.2,15.9,4.2c7.6,0,13.4-3,17.6-9C397.2,102.4,399.3,93.6,399.3,82z"/>
	<path fill="#FFFFFF" d="M417.5,81.3c0-7.1,1.4-13.4,4.1-19c2.7-5.6,6.5-10,11.5-13.2c4.9-3.1,10.5-4.7,16.8-4.7
		c6.2,0,11.8,1.5,16.7,4.6c4.9,3.1,8.8,7.4,11.5,13c2.8,5.6,4.2,11.9,4.2,18.9v3.3c0,7.1-1.3,13.5-4,19.1c-2.7,5.6-6.5,10-11.5,13.1
		c-4.9,3.1-10.5,4.7-16.8,4.7c-6.2,0-11.8-1.5-16.8-4.6c-4.9-3.1-8.8-7.4-11.5-13c-2.7-5.6-4.1-11.9-4.2-18.8V81.3z M421.2,84.2
		c0,6.2,1.2,11.8,3.7,16.9c2.4,5.1,5.8,9.1,10.2,12c4.4,2.9,9.3,4.3,14.9,4.3c8.4,0,15.3-3.2,20.6-9.5c5.3-6.3,8-14.5,8-24.5v-2.1
		c0-6.1-1.2-11.7-3.7-16.8c-2.5-5.1-5.9-9.2-10.2-12.1c-4.4-2.9-9.3-4.3-14.8-4.3c-8.4,0-15.3,3.2-20.6,9.6s-8,14.5-8,24.3V84.2z"/>
	<path fill="#FFFFFF" d="M532.8,48.5l-4.8-0.4c-6.3,0-11.6,2-15.8,6.1c-4.2,4.1-7,9.8-8.3,17.1v48.4h-3.7v-74h3.7v15.4
		c2-5.1,5-9.2,9-12.2c4-3,9-4.5,15.1-4.5c2.1,0,3.9,0.3,5.2,0.8L532.8,48.5z"/>
	<path fill="#FFFFFF" d="M558.7,25.8v20h16.8v3.7h-16.8V102c0,5.2,0.9,9.1,2.6,11.6c1.7,2.5,4.6,3.8,8.6,3.8c2,0,4.4-0.2,7.3-0.6
		l0.6,3.5c-1.5,0.5-4.1,0.8-7.7,0.8c-5.4,0-9.2-1.5-11.6-4.5c-2.3-3-3.5-7.7-3.6-14.1v-53h-13.7v-3.7h13.7v-20H558.7z"/>
	<path fill="#FFFFFF" d="M593.7,22.7c0-1,0.4-1.9,1.1-2.7c0.7-0.8,1.6-1.1,2.7-1.1c1,0,1.9,0.4,2.7,1.1s1.1,1.7,1.1,2.7
		c0,1-0.4,1.9-1.1,2.7c-0.8,0.7-1.7,1.1-2.7,1.1c-1,0-1.9-0.4-2.7-1.1C594.1,24.6,593.7,23.7,593.7,22.7z M599.3,119.8h-3.7v-74h3.7
		V119.8z"/>
	<path fill="#FFFFFF" d="M629.2,119.8V49.5h-12.9v-3.7h12.9V35c0-6.8,1.8-12.2,5.2-16c3.4-3.8,8.1-5.7,14.2-5.7
		c3.4,0,6.3,0.4,8.8,1.2l-0.5,3.6c-2.4-0.7-5.1-1-8.1-1c-4.9,0-8.7,1.6-11.5,4.8c-2.8,3.2-4.2,7.7-4.2,13.5v10.5h19.6v3.7h-19.6
		v70.3H629.2z"/>
	<path fill="#FFFFFF" d="M690.3,114l0.5-1.4l25.6-66.9h4.1l-33.1,86.8l-1.6,4.1c-3.6,8.6-9.4,12.9-17.6,12.9c-2.6,0-4.5-0.3-5.5-0.8
		l-0.1-3.5c1.5,0.4,3.1,0.6,5,0.6c3.9,0,7.1-1.1,9.6-3.4c2.6-2.3,4.8-5.9,6.6-11l4.5-12.2l-29.5-73.6h4L690.3,114z"/>
</g>
<g>
</g>
<g>
</g>
<g>
</g>
<g>
</g>
<g>
</g>
<g>
</g>
</svg>
